<?xml version="1.0" standalone="no"?>
<!DOCTYPE svg PUBLIC "-//W3C//DTD SVG 20010904//EN"
 "http://www.w3.org/TR/2001/REC-SVG-20010904/DTD/svg10.dtd">
<svg version="1.0" xmlns="http://www.w3.org/2000/svg"
 width="512.000000pt" height="512.000000pt" viewBox="0 0 512.000000 512.000000"
 preserveAspectRatio="xMidYMid meet">
<metadata>
Created by potrace 1.11, written by Peter Selinger 2001-2013
</metadata>
<g transform="translate(0.000000,512.000000) scale(0.100000,-0.100000)"
fill="#000000" stroke="none">
<path d="M565 4546 c-110 -35 -190 -101 -234 -195 l-26 -56 0 -775 0 -775 26
-56 c15 -32 45 -75 68 -98 40 -40 127 -91 156 -91 13 0 15 -37 15 -300 0 -332
4 -356 59 -384 41 -22 83 -20 114 5 15 11 140 164 278 339 178 226 260 322
280 329 15 5 35 24 44 41 l16 31 82 -3 82 -3 5 -455 5 -455 28 -60 c35 -76
105 -148 182 -188 l60 -32 945 -5 c520 -3 952 -9 960 -13 8 -4 148 -176 309
-382 162 -205 307 -380 322 -389 15 -9 36 -16 47 -16 27 0 88 36 99 58 4 9 10
179 13 376 4 305 7 360 20 366 8 5 45 22 82 39 82 39 157 117 190 199 l23 57
3 854 c2 746 0 861 -13 915 -29 111 -103 199 -215 254 l-55 27 -710 5 -710 5
-3 81 -3 82 36 21 37 21 -4 193 c-3 180 -5 195 -28 242 -35 73 -114 147 -185
176 l-60 24 -1150 2 c-909 1 -1158 -1 -1190 -11z m3959 -990 c64 -27 102 -62
130 -118 l26 -52 0 -850 0 -851 -24 -51 c-13 -28 -41 -65 -62 -82 -38 -32
-116 -62 -159 -62 -12 0 -30 -6 -41 -14 -18 -14 -19 -33 -24 -372 l-5 -357
-274 346 c-170 216 -287 356 -310 370 l-36 22 -950 5 -950 5 -40 22 c-52 28
-99 78 -122 128 -17 37 -18 95 -21 860 -2 560 1 836 8 871 20 95 98 174 191
194 26 5 568 8 1334 6 1189 -2 1293 -4 1329 -20z"/>
<path d="M2079 3111 c-34 -35 -36 -49 -8 -85 l20 -26 1083 0 c1036 0 1084 1
1099 18 26 29 22 77 -9 101 -27 21 -29 21 -1091 21 l-1065 0 -29 -29z"/>
<path d="M2079 2612 c-15 -13 -22 -30 -22 -52 0 -22 7 -39 22 -52 22 -17 68
-18 1097 -18 1061 0 1074 0 1094 20 12 12 20 33 20 54 0 70 76 66 -1116 66
-1027 0 -1073 -1 -1095 -18z"/>
<path d="M2071 2094 c-27 -34 -26 -47 3 -81 l24 -28 1070 -3 1069 -2 26 21
c33 25 37 77 9 102 -17 16 -108 17 -1100 17 l-1081 0 -20 -26z"/>
</g>
</svg>
